<svg width="43" height="15" viewBox="0 0 43 15" fill="none" xmlns="http://www.w3.org/2000/svg">
<g id="4ko">
<path id="Vector" d="M42.5009 8.89207C42.5009 9.78363 42.3439 10.597 42.0377 11.3478C41.7315 12.0907 41.3076 12.7398 40.758 13.2795C40.2163 13.8191 39.5647 14.2414 38.8189 14.5464C38.0731 14.8514 37.2566 15 36.3852 15H32.7896C31.9103 15 31.0938 14.8514 30.348 14.5464C29.6022 14.2414 28.9506 13.8191 28.4089 13.2795C27.8672 12.7398 27.4354 12.0907 27.1292 11.3478C26.823 10.6048 26.666 9.78363 26.666 8.89207V6.1001C26.666 5.21637 26.823 4.40302 27.1292 3.65224C27.4432 2.90146 27.8672 2.26017 28.4167 1.72054C28.9584 1.18092 29.61 0.758604 30.3558 0.453599C31.1017 0.148594 31.9181 0 32.7974 0H36.393C37.2723 0 38.0809 0.156412 38.8268 0.461418C39.5726 0.766423 40.2163 1.18874 40.7659 1.72836C41.3076 2.26799 41.7394 2.90928 42.0456 3.66006C42.3517 4.41085 42.5009 5.22419 42.5009 6.10792V8.89207ZM39.8474 6.1001C39.8474 5.57612 39.761 5.10688 39.5961 4.67675C39.4313 4.25443 39.1957 3.88686 38.8896 3.58968C38.5834 3.28467 38.2223 3.05005 37.7983 2.88582C37.3744 2.72158 36.9033 2.63556 36.393 2.63556H32.7974C32.2793 2.63556 31.8082 2.72158 31.3843 2.88582C30.9604 3.05005 30.5914 3.28467 30.2852 3.58968C29.979 3.89468 29.7435 4.25443 29.5708 4.67675C29.4059 5.09906 29.3196 5.57612 29.3196 6.1001V8.89207C29.3196 9.41606 29.4059 9.8853 29.5708 10.3154C29.7356 10.7377 29.9712 11.1053 30.2773 11.4025C30.5835 11.7075 30.9525 11.9421 31.3764 12.1064C31.8004 12.2706 32.2714 12.3566 32.7896 12.3566H36.3695C36.8876 12.3566 37.3587 12.2706 37.7826 12.1064C38.2066 11.9421 38.5755 11.7075 38.8817 11.4025C39.1879 11.0975 39.4234 10.7377 39.5961 10.3154C39.761 9.89312 39.8474 9.41606 39.8474 8.89207V6.1001Z" fill="#1A1A1A"/>
<path id="Vector_2" d="M10.1721 6.1488L3.15354 6.14098V0.173828H0.5V7.47049C0.5 7.65036 0.531403 7.83024 0.602059 7.98665C0.672716 8.15089 0.766924 8.29166 0.884685 8.40897C1.00245 8.52628 1.14376 8.62012 1.30862 8.69051C1.47349 8.7609 1.6462 8.8 1.84247 8.8L10.1721 8.80782V6.1488Z" fill="#1A1A1A"/>
<path id="Vector_3" d="M21.8909 14.8141L15.9636 8.90949C15.5946 8.54192 15.3905 8.05704 15.3905 7.54088C15.3905 7.02471 15.5946 6.53983 15.9636 6.17226L21.9851 0.173828H25.7377L18.3345 7.5487L25.6278 14.8141H21.8909Z" fill="#1A1A1A"/>
<path id="Vector_4" d="M14.1633 0.177734H11.5098V14.7789H14.1633V0.177734Z" fill="#1A1A1A"/>
</g>
</svg>
