<svg width="51" height="15" viewBox="0 0 51 15" fill="none" xmlns="http://www.w3.org/2000/svg">
<g id="4KOp">
<path id="Vector" d="M41.1699 8.89208C41.1699 9.78363 41.0179 10.597 40.7214 11.3478C40.4249 12.0907 40.0144 12.7398 39.4822 13.2795C38.9576 13.8191 38.3266 14.2414 37.6044 14.5464C36.8822 14.8514 36.0915 15 35.2477 15H31.7658C30.9143 15 30.1237 14.8514 29.4014 14.5464C28.6792 14.2414 28.0482 13.8191 27.5237 13.2795C26.9991 12.7398 26.581 12.0907 26.2845 11.3478C25.988 10.6048 25.8359 9.78363 25.8359 8.89208V6.1001C25.8359 5.21637 25.988 4.40302 26.2845 3.65224C26.5886 2.90146 26.9991 2.26017 27.5313 1.72054C28.0558 1.18092 28.6868 0.758604 29.4091 0.453599C30.1313 0.148594 30.9219 0 31.7734 0H35.2553C36.1067 0 36.8898 0.156412 37.612 0.461418C38.3342 0.766423 38.9576 1.18874 39.4898 1.72836C40.0144 2.26799 40.4325 2.90928 40.729 3.66006C41.0255 4.41085 41.1699 5.22419 41.1699 6.10792V8.89208ZM38.6003 6.1001C38.6003 5.57612 38.5167 5.10688 38.357 4.67675C38.1974 4.25443 37.9693 3.88686 37.6728 3.58968C37.3763 3.28467 37.0266 3.05005 36.6161 2.88582C36.2056 2.72158 35.7494 2.63556 35.2553 2.63556H31.7734C31.2716 2.63556 30.8155 2.72158 30.405 2.88582C29.9944 3.05005 29.6371 3.28467 29.3406 3.58968C29.0441 3.89468 28.8161 4.25443 28.6488 4.67675C28.4892 5.09906 28.4055 5.57612 28.4055 6.1001V8.89208C28.4055 9.41606 28.4892 9.8853 28.6488 10.3154C28.8085 10.7377 29.0365 11.1053 29.333 11.4025C29.6295 11.7075 29.9868 11.9421 30.3974 12.1064C30.8079 12.2706 31.264 12.3566 31.7658 12.3566H35.2325C35.7342 12.3566 36.1904 12.2706 36.6009 12.1064C37.0114 11.9421 37.3687 11.7075 37.6652 11.4025C37.9617 11.0975 38.1898 10.7377 38.357 10.3154C38.5167 9.89312 38.6003 9.41606 38.6003 8.89208V6.1001Z" fill="#1A1A1A"/>
<path id="Vector_2" d="M9.86612 6.1488L3.0696 6.14098V0.173828H0.5V7.47049C0.5 7.65036 0.530409 7.83024 0.598831 7.98665C0.667252 8.15089 0.75848 8.29166 0.872516 8.40897C0.986551 8.52628 1.12339 8.62012 1.28304 8.69051C1.44269 8.7609 1.60995 8.8 1.8 8.8L9.86612 8.80782V6.1488Z" fill="#1A1A1A"/>
<path id="Vector_3" d="M21.2147 14.8141L15.4749 8.90949C15.1176 8.54192 14.9199 8.05704 14.9199 7.54088C14.9199 7.02471 15.1176 6.53983 15.4749 6.17226L21.3059 0.173828H24.9398L17.7708 7.5487L24.8334 14.8141H21.2147Z" fill="#1A1A1A"/>
<path id="Vector_4" d="M13.7317 0.181641H11.1621V14.7828H13.7317V0.181641Z" fill="#1A1A1A"/>
<path id="Vector_5" d="M50.4994 3.26311C50.4994 3.58375 50.4613 3.86529 50.3853 4.11556C50.3093 4.36582 50.2029 4.58479 50.0736 4.77249C49.9444 4.96019 49.7923 5.12442 49.6251 5.26519C49.4578 5.39814 49.2754 5.50763 49.0929 5.59366C48.9105 5.67968 48.7204 5.74225 48.5303 5.78135C48.3403 5.82046 48.1654 5.84392 47.9982 5.84392H44.942V4.45184H47.9982C48.173 4.4362 48.3251 4.40492 48.4695 4.34235C48.614 4.27979 48.728 4.20158 48.8344 4.10773C48.9333 4.00607 49.0093 3.88876 49.0701 3.74798C49.1233 3.60721 49.1537 3.4508 49.1537 3.27093V2.63745C49.1385 2.4654 49.1005 2.30117 49.0473 2.15257C48.9941 2.00398 48.9181 1.87885 48.8192 1.77718C48.7204 1.67551 48.6064 1.58949 48.4771 1.53474C48.3479 1.48 48.1882 1.44871 48.0058 1.44871H44.9572C44.7748 1.44871 44.6379 1.49564 44.5467 1.58949C44.4555 1.68334 44.4099 1.82411 44.4099 2.00398V7.72087H43.0566V2.00398C43.0566 1.64423 43.1175 1.34705 43.2467 1.09679C43.3759 0.846525 43.528 0.64319 43.718 0.494597C43.9081 0.338184 44.1134 0.228694 44.3338 0.158308C44.5543 0.0879223 44.7596 0.0566406 44.9496 0.0566406H48.0058C48.3099 0.0566406 48.5836 0.0957439 48.8268 0.17395C49.0701 0.252157 49.283 0.361646 49.4654 0.494597C49.6479 0.627548 49.8075 0.783961 49.9368 0.956015C50.066 1.12807 50.1725 1.31576 50.2561 1.50346C50.3397 1.69116 50.4005 1.88667 50.4385 2.08219C50.4766 2.2777 50.4994 2.45758 50.4994 2.62963V3.26311Z" fill="#1A1A1A"/>
</g>
</svg>
