<svg width="41" height="15" viewBox="0 0 41 15" fill="none" xmlns="http://www.w3.org/2000/svg">
<g id="8KO">
<path id="Vector" d="M38.8138 1.74673C38.2846 1.20562 37.6556 0.789987 36.9346 0.484143C36.2059 0.178298 35.4159 0.0292969 34.5645 0.0292969H31.067C30.2156 0.0292969 29.4179 0.178298 28.6892 0.484143C27.9606 0.789987 27.3316 1.21346 26.8024 1.74673C26.2731 2.28784 25.859 2.9309 25.5521 3.67591C25.253 4.42091 25.0996 5.2365 25.0996 6.12266V8.90663C25.0996 9.7928 25.253 10.6084 25.5521 11.3534C25.8513 12.0984 26.2655 12.7415 26.7947 13.2826C27.3239 13.8237 27.9529 14.2472 28.6816 14.5452C29.4102 14.8432 30.2002 15 31.0593 15H34.5569C35.4083 15 36.1983 14.851 36.9269 14.553C37.6556 14.255 38.2769 13.8315 38.8138 13.2904C39.343 12.7493 39.7572 12.1062 40.0564 11.3612C40.3555 10.6162 40.5012 9.80064 40.5012 8.91448V6.13051C40.5012 5.25218 40.3555 4.4366 40.0564 3.68375C39.7572 2.9309 39.343 2.28784 38.8138 1.74673ZM37.9087 8.90663C37.9087 9.42422 37.8243 9.90259 37.6633 10.3261C37.5022 10.7495 37.2721 11.1103 36.973 11.4161C36.6738 11.7141 36.321 11.9494 35.9068 12.1141C35.4926 12.2788 35.0324 12.365 34.5339 12.365H31.0593C30.5531 12.365 30.1005 12.2788 29.6863 12.1141C29.2722 11.9494 28.9193 11.7141 28.6202 11.4161C28.3211 11.1181 28.091 10.7495 27.9299 10.3261C27.7688 9.90259 27.6844 9.43206 27.6844 8.90663V6.12266C27.6844 5.59724 27.7688 5.12671 27.9299 4.70323C28.091 4.27975 28.3211 3.91901 28.6202 3.61317C28.9193 3.31517 29.2722 3.0799 29.6863 2.91522C30.1005 2.75053 30.5607 2.66427 31.0593 2.66427H34.5569C35.0554 2.66427 35.508 2.75053 35.9222 2.91522C36.3363 3.0799 36.6892 3.31517 36.9883 3.61317C37.2798 3.91117 37.5099 4.27975 37.6709 4.70323C37.832 5.12671 37.9164 5.59724 37.9164 6.12266L37.9087 8.90663Z" fill="#1A1A1A"/>
<path id="Vector_2" d="M21.173 0.169981L14.9295 6.29472C14.569 6.6633 14.4923 7.02404 14.4923 7.29851C14.4923 7.59652 14.569 7.94157 14.9295 8.30231L21.0809 14.8505L24.7396 14.8427L17.614 7.29067L24.8469 0.154297L21.173 0.169981Z" fill="#1A1A1A"/>
<path id="Vector_3" d="M13.6773 3.46624V0H11.1155H9.3053H4.02826C2.98512 0 2.04937 0.431319 1.38973 1.20769C0.806805 1.88996 0.5 2.76044 0.5 3.7015V5.03467C0.5 6.19531 0.937197 6.99522 1.35138 7.48927C0.791465 8.17154 0.5 9.0185 0.5 9.94387V11.277C0.5 12.5632 1.03691 13.4101 1.48945 13.8885C2.14908 14.5943 3.05415 14.9785 4.02826 14.9785H10.172C11.2612 14.9785 12.22 14.5237 12.8642 13.7081C13.4011 13.0337 13.6773 12.1946 13.6773 11.277V9.94387C13.6773 8.76755 13.2477 7.97549 12.8489 7.48143C12.8566 7.47359 12.8566 7.47359 12.8642 7.46575C13.4011 6.79132 13.6773 5.95221 13.6773 5.03467V3.7015C13.6773 3.62308 13.6773 3.54466 13.6773 3.46624ZM11.0848 11.2457C11.0848 11.575 11.0004 11.8495 10.824 12.0769C10.6476 12.2965 10.3945 12.4063 10.057 12.4063H4.14331C3.84417 12.4063 3.59106 12.3044 3.39164 12.0926C3.19221 11.8809 3.0925 11.5986 3.0925 11.2457V9.9674C3.0925 9.63803 3.18454 9.36355 3.3763 9.13613C3.56038 8.91655 3.82116 8.80676 4.14331 8.80676H10.057C10.3715 8.80676 10.6246 8.90871 10.8086 9.1126C10.9927 9.3165 11.0848 9.59882 11.0848 9.9674V11.2457ZM11.0848 5.01115C11.0848 5.34052 11.0004 5.61499 10.824 5.84242C10.6476 6.062 10.3945 6.17179 10.057 6.17179H4.14331C3.84417 6.17179 3.59106 6.06984 3.39164 5.8581C3.19221 5.64636 3.0925 5.36405 3.0925 5.01115V3.72503C3.0925 3.39566 3.18454 3.12118 3.3763 2.89376C3.56038 2.67418 3.82116 2.56439 4.14331 2.56439H10.057C10.0953 2.56439 10.126 2.56439 10.1567 2.57223H11.0771V2.79966V3.70935C11.0771 3.71719 11.0771 3.72503 11.0771 3.73287V5.01115H11.0848Z" fill="#1A1A1A"/>
</g>
</svg>
