<svg width="51" height="15" viewBox="0 0 51 15" fill="none" xmlns="http://www.w3.org/2000/svg">
<g id="8KOp">
<path id="Vector" d="M39.2769 1.75538C38.7413 1.21462 38.1048 0.799258 37.3752 0.493613C36.6378 0.187968 35.8383 0.0390625 34.9767 0.0390625H31.4373C30.5757 0.0390625 29.7684 0.187968 29.0311 0.493613C28.2937 0.799258 27.6572 1.22246 27.1216 1.75538C26.586 2.29613 26.1669 2.93877 25.8564 3.68329C25.5537 4.42781 25.3984 5.24287 25.3984 6.12846V8.91061C25.3984 9.7962 25.5537 10.6112 25.8564 11.3558C26.1591 12.1003 26.5783 12.7429 27.1138 13.2837C27.6494 13.8244 28.2859 14.2476 29.0233 14.5455C29.7607 14.8433 30.5602 15 31.4295 15H34.969C35.8306 15 36.63 14.8511 37.3674 14.5533C38.1048 14.2555 38.7335 13.8323 39.2769 13.2915C39.8125 12.7508 40.2316 12.1081 40.5343 11.3636C40.837 10.6191 40.9845 9.80403 40.9845 8.91845V6.13629C40.9845 5.25854 40.837 4.44349 40.5343 3.69113C40.2316 2.93877 39.8125 2.29613 39.2769 1.75538ZM38.361 8.91061C38.361 9.42786 38.2756 9.90592 38.1126 10.3291C37.9496 10.7523 37.7167 11.1128 37.414 11.4185C37.1113 11.7163 36.7542 11.9514 36.3351 12.116C35.9159 12.2805 35.4502 12.3668 34.9457 12.3668H31.4295C30.9172 12.3668 30.4593 12.2805 30.0401 12.116C29.621 11.9514 29.2639 11.7163 28.9612 11.4185C28.6585 11.1207 28.4256 10.7523 28.2626 10.3291C28.0996 9.90592 28.0142 9.43569 28.0142 8.91061V6.12846C28.0142 5.60337 28.0996 5.13315 28.2626 4.70995C28.4256 4.28675 28.6585 3.92624 28.9612 3.6206C29.2639 3.32279 29.621 3.08768 30.0401 2.9231C30.4593 2.75852 30.925 2.67231 31.4295 2.67231H34.969C35.4735 2.67231 35.9315 2.75852 36.3506 2.9231C36.7698 3.08768 37.1268 3.32279 37.4295 3.6206C37.7245 3.91841 37.9573 4.28675 38.1203 4.70995C38.2834 5.13315 38.3687 5.60337 38.3687 6.12846L38.361 8.91061Z" fill="#1A1A1A"/>
<path id="Vector_2" d="M21.4169 0.179713L15.0987 6.30045C14.7338 6.66879 14.6562 7.0293 14.6562 7.3036C14.6562 7.6014 14.7338 7.94623 15.0987 8.30674L21.3238 14.8507L25.0262 14.8428L17.8076 7.3036L25.1272 0.171875L21.4169 0.179713Z" fill="#1A1A1A"/>
<path id="Vector_3" d="M13.8351 3.46398V0H11.2426H9.41077H4.07052C3.01489 0 2.06792 0.423202 1.40039 1.19907C0.81048 1.89657 0.5 2.75864 0.5 3.70693V5.03923C0.5 6.19911 0.942434 6.99065 1.36158 7.49223C0.794956 8.17405 0.5 9.01261 0.5 9.94522V11.2775C0.5 12.5628 1.04334 13.4092 1.5013 13.8873C2.16883 14.5926 3.08474 14.9766 4.07052 14.9766H10.2879C11.3901 14.9766 12.3603 14.5221 13.0123 13.707C13.5557 13.033 13.8351 12.1945 13.8351 11.2775V9.94522C13.8351 8.76966 13.4004 7.97812 12.9968 7.48439C13.0046 7.47655 13.0046 7.47655 13.0123 7.46871C13.5557 6.79473 13.8351 5.95616 13.8351 5.03923V3.70693C13.8351 3.62856 13.8351 3.54235 13.8351 3.46398ZM11.2116 11.2462C11.2116 11.5753 11.1262 11.8496 10.9476 12.0769C10.7691 12.2963 10.513 12.4061 10.1714 12.4061H4.18695C3.88423 12.4061 3.62808 12.3042 3.42627 12.0926C3.22446 11.881 3.12355 11.5988 3.12355 11.2462V9.96873C3.12355 9.63958 3.2167 9.36528 3.41075 9.13801C3.59704 8.91857 3.86094 8.80885 4.18695 8.80885H10.1714C10.4897 8.80885 10.7458 8.91073 10.9321 9.1145C11.1184 9.31826 11.2116 9.60039 11.2116 9.96873V11.2462ZM11.2116 5.01572C11.2116 5.34487 11.1262 5.61917 10.9476 5.84644C10.7691 6.06588 10.513 6.1756 10.1714 6.1756H4.18695C3.88423 6.1756 3.62808 6.07372 3.42627 5.86212C3.22446 5.65052 3.12355 5.36838 3.12355 5.01572V3.73044C3.12355 3.40128 3.2167 3.12698 3.41075 2.89971C3.59704 2.68027 3.86094 2.57056 4.18695 2.57056H10.1714C10.2103 2.57056 10.2413 2.57055 10.2724 2.57839H11.2038V2.80567V3.71476C11.2038 3.7226 11.2038 3.73044 11.2038 3.73828V5.01572H11.2116Z" fill="#1A1A1A"/>
<path id="Vector_4" d="M50.4994 3.2796C50.4994 3.60092 50.4606 3.88305 50.383 4.13384C50.3053 4.38463 50.1967 4.60406 50.0647 4.79215C49.9328 4.98024 49.7775 5.14482 49.6068 5.28589C49.436 5.41912 49.2497 5.52883 49.0634 5.61504C48.8771 5.70125 48.6831 5.76395 48.489 5.80313C48.295 5.84232 48.1165 5.86583 47.9457 5.86583H44.8254V4.47083H47.9457C48.1242 4.45516 48.2795 4.42381 48.4269 4.36111C48.5744 4.29842 48.6908 4.22005 48.7995 4.126C48.9004 4.02412 48.978 3.90656 49.0401 3.7655C49.0945 3.62443 49.1255 3.46769 49.1255 3.28744V2.65263C49.11 2.48022 49.0712 2.31564 49.0168 2.16674C48.9625 2.01783 48.8849 1.89244 48.784 1.79056C48.6831 1.68868 48.5666 1.60247 48.4347 1.54761C48.3027 1.49275 48.1397 1.4614 47.9535 1.4614H44.8409C44.6546 1.4614 44.5149 1.50842 44.4217 1.60247C44.3286 1.69651 44.282 1.83758 44.282 2.01783V7.74672H42.9004V2.01783C42.9004 1.65733 42.9625 1.35952 43.0944 1.10874C43.2264 0.85795 43.3816 0.654186 43.5757 0.505282C43.7697 0.348541 43.9793 0.238823 44.2044 0.168289C44.4295 0.0977559 44.6391 0.0664062 44.8331 0.0664062H47.9535C48.2639 0.0664062 48.5434 0.105592 48.7917 0.183962C49.0401 0.262333 49.2575 0.372052 49.4438 0.505282C49.63 0.638512 49.793 0.795252 49.925 0.967668C50.057 1.14008 50.1656 1.32817 50.251 1.51626C50.3364 1.70435 50.3985 1.90028 50.4373 2.09621C50.4761 2.29213 50.4994 2.47238 50.4994 2.6448V3.2796Z" fill="#1A1A1A"/>
</g>
</svg>
